<svg id="Layer_1" data-name="Layer 1" xmlns="http://www.w3.org/2000/svg" xmlns:xlink="http://www.w3.org/1999/xlink" viewBox="0 0 184.57 868.39"><defs><style>.cls-1{fill:none;}.cls-2{fill:#b6842c;}.cls-3{fill:#141a42;}.cls-4{fill:#801828;}.cls-5{opacity:0.46;}.cls-6{clip-path:url(#clip-path);}.cls-7{fill:url(#ABAI_13);}.cls-8{opacity:0.05;}.cls-9{clip-path:url(#clip-path-2);}.cls-10{fill:url(#ABAI_13-3);}.cls-11{clip-path:url(#clip-path-3);}.cls-12{fill:url(#ABAI_13-5);}</style><clipPath id="clip-path"><rect class="cls-1" x="-598.76" y="-410.69" width="232.59" height="1094.33"/></clipPath><pattern id="ABAI_13" data-name="ABAI 13" width="869.87" height="980.19" patternTransform="translate(-3333.54 2674.65) scale(0.57 0.56)" patternUnits="userSpaceOnUse" viewBox="0 0 869.87 980.19"><rect class="cls-1" width="869.87" height="980.19"/><path class="cls-2" d="M206.5,145v59.82a19.91,19.91,0,0,1-20.17,19.65H136.48a19.91,19.91,0,0,1-20.17-19.65v-58.6q0-63.57,14.49-91.54A124.38,124.38,0,0,1,175,6.83a20.5,20.5,0,0,1,28.42,6.38l.06.09A19.28,19.28,0,0,1,198,39.21a71.26,71.26,0,0,0-21.65,24.27Q167.74,79.17,164.44,103c-1.64,11.82,7.74,22.35,20,22.35h1.91A19.92,19.92,0,0,1,206.5,145Z"/><path class="cls-2" d="M91.64,145v59.82A19.91,19.91,0,0,1,71.47,224.5H21.62A19.91,19.91,0,0,1,1.45,204.85v-58.6q0-63.57,14.49-91.54A124.45,124.45,0,0,1,60.12,6.83a20.5,20.5,0,0,1,28.42,6.38l.06.09a19.28,19.28,0,0,1-5.45,25.91A71.26,71.26,0,0,0,61.5,63.48Q52.88,79.17,49.58,103c-1.63,11.82,7.75,22.35,20,22.35h1.91A19.92,19.92,0,0,1,91.64,145Z"/><path class="cls-3" d="M325.61,400.26c-26.29.07-48.15,22.07-48.16,48.69,0,26.78,21.81,49.21,47.8,49.14,26.2-.06,47.57-21.82,47.88-48.36C373.44,423.78,350.21,400.2,325.61,400.26Z"/><path class="cls-3" d="M204.79,400.26c-26.29.07-48.14,22.07-48.15,48.69,0,26.78,21.8,49.21,47.79,49.14,26.2-.06,47.57-21.82,47.89-48.36C252.63,423.78,229.39,400.2,204.79,400.26Z"/><path class="cls-3" d="M83,400.26c-26.29.07-48.15,22.07-48.16,48.69,0,26.78,21.8,49.21,47.8,49.14,26.19-.06,47.56-21.82,47.88-48.36C130.78,423.78,107.55,400.2,83,400.26Z"/><path class="cls-2" d="M28.23,760.55V729.31a10.41,10.41,0,0,1,10.53-10.26h26a10.4,10.4,0,0,1,10.53,10.26v30.6q0,33.2-7.56,47.8a64.92,64.92,0,0,1-23.07,25,10.7,10.7,0,0,1-14.84-3.33l0,0a10.07,10.07,0,0,1,2.84-13.53A37,37,0,0,0,44,803.13q4.5-8.19,6.23-20.65a10.38,10.38,0,0,0-10.44-11.67h-1A10.4,10.4,0,0,1,28.23,760.55Z"/><path class="cls-2" d="M88.21,760.55V729.31a10.4,10.4,0,0,1,10.53-10.26h26a10.41,10.41,0,0,1,10.53,10.26v30.6q0,33.2-7.57,47.8a64.92,64.92,0,0,1-23.07,25,10.7,10.7,0,0,1-14.84-3.33l0,0a10.07,10.07,0,0,1,2.85-13.53,37.11,37.11,0,0,0,11.3-12.67q4.5-8.19,6.23-20.65a10.38,10.38,0,0,0-10.44-11.67h-1A10.39,10.39,0,0,1,88.21,760.55Z"/><path class="cls-2" d="M98.25,256.69q-43.81,0-87.62,0c-8,0-9.17,1.1-9.17,8.64q0,22.82,0,45.63h.05c0,15.79-.05,31.59,0,47.38,0,6.85,3.18,9.75,10.46,9.76q42.83,0,85.67,0c7.51,0,10.51-2.69,10.52-9.63q0-46.52-.09-93C108.07,259,105.38,256.7,98.25,256.69Z"/><path class="cls-2" d="M126.65,518.18q-53.24,0-106.48.05c-13.38,0-18.08,5.89-18.13,23-.07,23,0,46.11,0,69.16,0,23.86-.09,47.71,0,71.56.07,14.41,4.7,20.12,16.23,20.15q53.72.18,107.44.17c13.12,0,18.65-6.47,18.72-23.13q.27-69.76,0-139.53C144.39,524.72,138.8,518.19,126.65,518.18Z"/><path class="cls-4" d="M403.94,704.52c0,10.75-.18,21.51.07,32.26.23,10-3.54,15-12.63,14.45l-18.82.13c-40.4.27-80.79.82-121.19.63-10,0-16.94,4-22.73,12.73-11.9,18-24.13,35.65-36.26,53.42-6.08,8.92-13.1,11.34-18.78,6.64-3.5-2.89-4.78-6.55-4.77-11.54q.19-139.95.15-279.9c0-11,3.59-15,13.33-15.05q104.55-.07,209.1,0c9.27,0,12.8,4.27,12.79,15.61Q404.13,619.2,403.94,704.52ZM306.5,646.66a25.45,25.45,0,0,0,0-26.52l-50.12-83.72c-3.24-5.4-9.59-8.78-16.51-8.78h-39.4c-14.07,0-23.09,13.24-16.5,24.24l44.18,73.79a14.82,14.82,0,0,1,0,15.46L184,714.92c-6.59,11,2.43,24.24,16.5,24.24h39.4c6.92,0,13.27-3.38,16.51-8.78Zm94.27-25.76-40.31-67.31a15.39,15.39,0,0,0-13.27-7.07H315.5c-11.31,0-18.56,10.65-13.27,19.5l35.53,59.33a11.93,11.93,0,0,1,0,12.43l-35.53,59.34c-5.29,8.84,2,19.49,13.27,19.49h31.69a15.4,15.4,0,0,0,13.27-7.06l40.31-67.32A20.5,20.5,0,0,0,400.77,620.9Z"/><path class="cls-2" d="M282.49,932.61q0-34,7.74-48.91a65.83,65.83,0,0,1,11.95-16.23h-9.89c-5.17,0-9,1.94-10.13,6.11-2.44,8.78-4.68,17.61-6.56,26.48-4.21,19.86-2.29,39.91-2.37,59.9a5,5,0,0,0,2,3.19h0a2.3,2.3,0,0,0,1.51,2.06v0l1.2,1h0a9.9,9.9,0,0,0,5.88,2.69,10.18,10.18,0,0,1-1.28-5Z"/><path class="cls-2" d="M343.85,932.6q0-33.95,7.73-48.9a66.24,66.24,0,0,1,12-16.3l-33.06,0a10.35,10.35,0,0,1-4.4,8,38,38,0,0,0-11.57,13q-4.6,8.37-6.36,21.12a10.6,10.6,0,0,0,10.67,11.94h1A10.64,10.64,0,0,1,330.67,932v32a10.34,10.34,0,0,1-1.4,5.17l16,0a10.27,10.27,0,0,1-1.42-5.21Z"/><path class="cls-2" d="M402,909.68l.12-6.27c.05-9.41.26-18.83.09-28.24-.1-5-3.83-7.77-10-7.77h-.3a10.36,10.36,0,0,1-4.41,8,37.94,37.94,0,0,0-11.57,13q-4.6,8.39-6.37,21.13a10.61,10.61,0,0,0,10.67,11.94h1A10.64,10.64,0,0,1,392,932v31.95a10.27,10.27,0,0,1-1.48,5.3h4.7c2.3,0,4.52-.19,6-1.94,2-1,2.18-2.67,2.13-4.44Q402.66,936.26,402,909.68Z"/><path class="cls-2" d="M390.41,861.58l0-.05a11,11,0,0,0-15.19-3.4,68.68,68.68,0,0,0-11.59,9.28q14.14,0,28.31,0A10.38,10.38,0,0,0,390.41,861.58Z"/><path class="cls-2" d="M354.62,974.41h26.64a10.81,10.81,0,0,0,9.29-5.2l-45.28-.09A10.82,10.82,0,0,0,354.62,974.41Z"/><path class="cls-2" d="M329,861.58l0-.05a10.94,10.94,0,0,0-15.18-3.4,69,69,0,0,0-11.65,9.34l28.36,0A10.18,10.18,0,0,0,329,861.58Z"/><path class="cls-2" d="M283.77,968.88a10.8,10.8,0,0,0,9.49,5.53h26.63a10.81,10.81,0,0,0,9.37-5.33L285.63,969A12.57,12.57,0,0,1,283.77,968.88Z"/><path class="cls-3" d="M254.38,834.39a25.78,25.78,0,0,0,25.42-25.71c0-14.13-11.51-26-25.23-25.94s-25.11,11.52-25.28,25.54C229.13,822,241.39,834.43,254.38,834.39Z"/><path class="cls-3" d="M318.16,834.39a25.79,25.79,0,0,0,25.43-25.71c0-14.13-11.52-26-25.24-25.94s-25.11,11.52-25.28,25.54C292.91,822,305.17,834.43,318.16,834.39Z"/><path class="cls-3" d="M382.49,834.39a25.78,25.78,0,0,0,25.42-25.71c0-14.13-11.51-26-25.23-25.94s-25.11,11.52-25.28,25.54C357.23,822,369.5,834.43,382.49,834.39Z"/><path class="cls-4" d="M361.59,276.45c.16,24,.21,47.95,0,71.92a36.69,36.69,0,0,0,29-35.56C390.75,295.72,377.35,280,361.59,276.45Z"/><path class="cls-4" d="M165.61,312.49c0-12-.05-24,0-36a36.79,36.79,0,0,0-28.9,35.76c0,17.63,12.6,32.74,28.88,36.14C165.51,336.41,165.6,324.45,165.61,312.49Z"/><path class="cls-4" d="M354.63,349.09a35.28,35.28,0,0,0,6.94-.72v1.34c-.09,9-7.7,12.53-25.76,12.52q-73.92,0-147.85-.08c-15.86,0-22.23-3.12-22.32-10.92,0-1,0-1.91,0-2.86a34.22,34.22,0,0,0,7,.72c19.65,0,35.68-16.37,35.92-36.28.23-19.47-17.2-37.16-35.65-37.11a34.58,34.58,0,0,0-7.23.77V275c.07-9.27,6.55-12.46,25-12.46q73.28,0,146.53,0c16.71,0,24.4,3.53,24.46,11.61,0,.76,0,1.52,0,2.28a30.16,30.16,0,0,0-6.69-.75c-19.73.05-36.12,16.55-36.13,36.53S335.13,349.14,354.63,349.09Zm-54.71-36.28c.23-19.47-17.2-37.16-35.65-37.11-19.73.05-36.12,16.55-36.13,36.53S244.5,349.14,264,349.09,299.68,332.72,299.92,312.81Z"/><path class="cls-3" d="M116.41,914.09a23.63,23.63,0,0,0,23.29-23.56c0-12.95-10.55-23.8-23.12-23.77s-23,10.56-23.17,23.4C93.26,902.71,104.5,914.12,116.41,914.09Z"/><path class="cls-3" d="M174.85,914.09a23.64,23.64,0,0,0,23.3-23.56c0-12.95-10.55-23.8-23.12-23.77s-23,10.56-23.17,23.4C151.71,902.71,163,914.12,174.85,914.09Z"/><path class="cls-3" d="M233.8,914.09a23.64,23.64,0,0,0,23.3-23.56c0-12.95-10.55-23.8-23.13-23.77s-23,10.56-23.16,23.4C210.66,902.71,221.9,914.12,233.8,914.09Z"/><path class="cls-3" d="M116.41,974.41a23.62,23.62,0,0,0,23.29-23.55c0-13-10.55-23.81-23.12-23.78s-23,10.56-23.17,23.4C93.26,963,104.5,974.44,116.41,974.41Z"/><path class="cls-3" d="M174.85,974.41a23.63,23.63,0,0,0,23.3-23.55c0-13-10.55-23.81-23.12-23.78s-23,10.56-23.17,23.4C151.71,963,163,974.44,174.85,974.41Z"/><path class="cls-3" d="M233.8,974.41a23.63,23.63,0,0,0,23.3-23.55c0-13-10.55-23.81-23.13-23.78s-23,10.56-23.16,23.4C210.66,963,221.9,974.44,233.8,974.41Z"/><path class="cls-2" d="M34.44,972.31a14.61,14.61,0,0,0,14.41-12.5l-28.8,0A14.5,14.5,0,0,0,34.44,972.31Z"/><path class="cls-2" d="M48.18,860.6a7.78,7.78,0,0,0-7.75-8.29h-12a7.78,7.78,0,0,0-7.75,8.29L24,908.46H45Z"/><path class="cls-2" d="M68.86,914.43c0-4.16-2-6-6.16-6H45l-1.4,20.88a7.77,7.77,0,0,1-7.75,7.25H33.1a7.78,7.78,0,0,1-7.75-7.25L24,908.46H16c-4.64,0-16,1.65-16,6.42,0,6.43,0,12.87,0,19.3,0,6.65,0,13.31,0,20,0,4,1.63,5.62,5.63,5.63h14.4a14.59,14.59,0,0,1-.15-2,14.55,14.55,0,1,1,29.1.07,14.27,14.27,0,0,1-.15,2H62.37c4.55,0,6.47-1.8,6.49-6.45Q69,933.89,68.86,914.43Z"/><path class="cls-3" d="M266,138.18H247.52c-6.6,0-10.84,6.22-7.75,11.39l20.76,34.65a7,7,0,0,1,0,7.26l-20.76,34.65c-3.09,5.17,1.15,11.39,7.75,11.39H266a9,9,0,0,0,7.75-4.13l23.54-39.31a12,12,0,0,0,0-12.46l-23.54-39.31A9,9,0,0,0,266,138.18Z"/><path class="cls-2" d="M319,148.21H304.22c-5.28,0-8.65,5-6.19,9.09L314.59,185a5.55,5.55,0,0,1,0,5.8L298,218.4c-2.46,4.12.91,9.09,6.19,9.09H319a7.16,7.16,0,0,0,6.18-3.3L344,192.82a9.55,9.55,0,0,0,0-9.94l-18.79-31.37A7.16,7.16,0,0,0,319,148.21Z"/><path class="cls-3" d="M365.41,138.18h-18.5c-6.61,0-10.85,6.22-7.75,11.39l20.75,34.65a7,7,0,0,1,0,7.26l-20.75,34.65c-3.1,5.17,1.14,11.39,7.75,11.39h18.5a9,9,0,0,0,7.75-4.13l23.54-39.31a11.94,11.94,0,0,0,0-12.46l-23.54-39.31A9,9,0,0,0,365.41,138.18Z"/><path class="cls-4" d="M368.22,19.23h-16c-5.71,0-9.38,5.38-6.7,9.85l17.95,30a6.06,6.06,0,0,1,0,6.28l-17.95,30c-2.68,4.47,1,9.85,6.7,9.85h16a7.77,7.77,0,0,0,6.7-3.57l20.37-34a10.37,10.37,0,0,0,0-10.77l-20.37-34A7.75,7.75,0,0,0,368.22,19.23Z"/><path class="cls-2" d="M282.7,15.29A50.26,50.26,0,0,0,232.06,66c0,28.95,23.18,50.54,50.71,50.73,27.84,0,50.81-22.79,50.79-50.48C333.53,38.41,311.67,15.24,282.7,15.29Z"/><path class="cls-2" d="M640.92,93.38V33c0-10.95,9.31-19.84,20.78-19.84h51.36c11.47,0,20.78,8.89,20.78,19.84V92.15q0,64.18-14.93,92.43a126.59,126.59,0,0,1-45.52,48.34c-9.91,6.19-23.22,3.28-29.28-6.44l-.05-.09a19.23,19.23,0,0,1,5.6-26.17A72.39,72.39,0,0,0,672,175.72q8.88-15.84,12.29-39.93c1.68-11.93-8-22.57-20.59-22.57h-2C650.23,113.22,640.92,104.34,640.92,93.38Z"/><path class="cls-2" d="M759.26,93.38V33c0-10.95,9.3-19.84,20.78-19.84h51.35c11.48,0,20.78,8.89,20.78,19.84V92.15q0,64.18-14.93,92.43a126.54,126.54,0,0,1-45.51,48.33c-9.91,6.2-23.23,3.29-29.29-6.43l-.05-.09A19.24,19.24,0,0,1,768,200.22a72.49,72.49,0,0,0,22.31-24.5q8.88-15.84,12.28-39.93c1.68-11.93-8-22.57-20.59-22.57h-2C768.56,113.22,759.26,104.34,759.26,93.38Z"/><path class="cls-3" d="M523.26,881.41c28.11.07,51.48,22.28,51.49,49.16,0,27-23.31,49.68-51.11,49.62-28-.06-50.86-22-51.19-48.83C472.11,905.15,497,881.34,523.26,881.41Z"/><path class="cls-3" d="M652.45,881.41c28.11.07,51.48,22.28,51.49,49.16,0,27-23.31,49.68-51.11,49.62-28-.06-50.86-22-51.2-48.83C601.3,905.15,626.14,881.34,652.45,881.41Z"/><path class="cls-3" d="M782.73,881.41c28.12.07,51.48,22.28,51.5,49.16,0,27-23.32,49.68-51.11,49.62-28-.06-50.86-22-51.2-48.83C731.59,905.15,756.43,881.34,782.73,881.41Z"/><path class="cls-2" d="M470.21,500.22V468.69a10.62,10.62,0,0,1,10.85-10.37h26.82a10.62,10.62,0,0,1,10.85,10.37v30.89q0,33.51-7.79,48.26a66.21,66.21,0,0,1-23.77,25.24,11.17,11.17,0,0,1-15.29-3.36l0-.05A10,10,0,0,1,474.78,556a37.84,37.84,0,0,0,11.65-12.8q4.63-8.26,6.41-20.84c.88-6.23-4.17-11.79-10.75-11.79h-1A10.62,10.62,0,0,1,470.21,500.22Z"/><path class="cls-2" d="M532,500.22V468.69a10.62,10.62,0,0,1,10.85-10.37h26.82a10.62,10.62,0,0,1,10.85,10.37v30.89q0,33.51-7.8,48.26A66.1,66.1,0,0,1,549,573.08a11.17,11.17,0,0,1-15.29-3.36l0-.05A10,10,0,0,1,536.57,556a37.81,37.81,0,0,0,11.64-12.8q4.63-8.26,6.42-20.84c.88-6.23-4.17-11.79-10.75-11.79h-1A10.62,10.62,0,0,1,532,500.22Z"/><path class="cls-2" d="M766.37,736.45q46.85,0,93.69,0c8.59,0,9.8,1.12,9.81,8.72q0,23,0,46.07h0c0,15.95,0,31.9,0,47.84,0,6.92-3.4,9.85-11.18,9.86q-45.81,0-91.6,0c-8,0-11.25-2.71-11.25-9.73q-.06-47,.09-93.91C755.88,738.75,758.74,736.46,766.37,736.45Z"/><path class="cls-2" d="M571.61,255.51q-54.86,0-109.7.05c-13.78,0-18.63,5.95-18.68,23.23-.07,23.28,0,46.56,0,69.84,0,24.08-.09,48.16,0,72.24.07,14.55,4.84,20.31,16.72,20.35q55.33.18,110.69.17c13.52,0,19.22-6.53,19.28-23.35q.29-70.44,0-140.88C589.88,262.11,584.12,255.52,571.61,255.51Z"/><path class="cls-4" d="M857.28,443.66c0,10.85-.18,21.71.07,32.56.24,10.07-3.64,15.17-13,14.59l-19.38.13c-41.62.28-83.24.84-124.86.64-10.31-.05-17.46,4-23.42,12.85-12.26,18.14-24.86,36-37.35,53.94-6.27,9-13.5,11.45-19.35,6.71-3.61-2.92-4.93-6.62-4.92-11.66q.2-141.3.16-282.6c0-11.15,3.7-15.18,13.73-15.19q107.71-.09,215.43,0c9.55,0,13.18,4.32,13.17,15.77Q857.48,357.52,857.28,443.66ZM756.9,385.24a25.27,25.27,0,0,0,0-26.78l-51.64-84.53c-3.34-5.46-9.88-8.87-17-8.87h-40.6c-14.5,0-23.79,13.37-17,24.48L676.18,364a14.75,14.75,0,0,1,0,15.61l-45.52,74.5c-6.79,11.11,2.5,24.48,17,24.48h40.6c7.12,0,13.66-3.41,17-8.87Zm97.11-26-41.53-68c-2.68-4.39-7.94-7.13-13.67-7.13H766.17c-11.66,0-19.13,10.75-13.67,19.68l36.6,59.91a11.84,11.84,0,0,1,0,12.55l-36.6,59.91c-5.46,8.93,2,19.68,13.67,19.68h32.64c5.73,0,11-2.75,13.67-7.13l41.53-68A20.3,20.3,0,0,0,854,359.23Z"/><path class="cls-2" d="M735.76,637.27q0,34.28,8.28,49.37A66.79,66.79,0,0,0,756.82,703l-10.58,0c-5.53,0-9.6-1.95-10.83-6.17-2.61-8.86-5-17.77-7-26.73-4.5-20-2.44-40.3-2.53-60.48a5,5,0,0,1,2.14-3.22h0a2.34,2.34,0,0,1,1.63-2.08h0l1.28-1h0a11,11,0,0,1,6.29-2.72,9.92,9.92,0,0,0-1.37,5Z"/><path class="cls-2" d="M801.38,637.27q0,34.29,8.26,49.38a66.85,66.85,0,0,0,12.84,16.45q-17.67,0-35.35,0a10.3,10.3,0,0,0-4.71-8.07,39.38,39.38,0,0,1-12.37-13.09q-4.92-8.48-6.8-21.34c-.93-6.37,4.43-12.05,11.42-12.05h1.09c6.36,0,11.52-4.74,11.52-10.6V605.66a9.9,9.9,0,0,0-1.5-5.22l17.12,0a9.8,9.8,0,0,0-1.53,5.25Z"/><path class="cls-2" d="M863.57,660.41l.12,6.33c0,9.51.28,19,.09,28.52-.1,5-4.09,7.84-10.69,7.85h-.33A10.31,10.31,0,0,0,848,695a39.29,39.29,0,0,1-12.37-13.09q-4.92-8.46-6.81-21.33c-.93-6.37,4.43-12.06,11.42-12.06h1.09c6.36,0,11.52-4.74,11.52-10.6V605.66a9.82,9.82,0,0,0-1.59-5.35h5c2.46,0,4.83.19,6.4,2,2.16,1.06,2.34,2.69,2.29,4.49Q864.27,633.57,863.57,660.41Z"/><path class="cls-2" d="M851.15,709l0,0c-3.36,5.19-10.74,6.75-16.23,3.44a73.24,73.24,0,0,1-12.4-9.38l30.27,0A9.89,9.89,0,0,1,851.15,709Z"/><path class="cls-2" d="M812.89,595.06h28.48a11.71,11.71,0,0,1,9.93,5.25l-48.41.09A11.72,11.72,0,0,1,812.89,595.06Z"/><path class="cls-2" d="M785.54,709l0,0c-3.36,5.19-10.74,6.75-16.24,3.44A73.49,73.49,0,0,1,756.82,703l30.32,0A9.93,9.93,0,0,1,785.54,709Z"/><path class="cls-2" d="M737.13,600.64a11.7,11.7,0,0,1,10.15-5.58h28.48a11.71,11.71,0,0,1,10,5.38l-46.66.09A14.31,14.31,0,0,0,737.13,600.64Z"/><path class="cls-3" d="M703.2,574.78a26.3,26.3,0,0,0,26.19-26c0-14.27-11.86-26.22-26-26.19a26.19,26.19,0,0,0-26,25.78C677.18,562.24,689.82,574.81,703.2,574.78Z"/><path class="cls-3" d="M768.91,574.78c14.3,0,26.19-11.76,26.19-26s-11.86-26.22-26-26.19a26.19,26.19,0,0,0-26.05,25.78C742.89,562.24,755.53,574.81,768.91,574.78Z"/><path class="cls-3" d="M835.18,574.78c14.3,0,26.19-11.76,26.19-26s-11.85-26.22-26-26.19a26.2,26.2,0,0,0-26,25.78C809.17,562.24,821.8,574.81,835.18,574.78Z"/><path class="cls-4" d="M484.79,756.4c-.17,24.21-.23,48.42,0,72.62-17.47-3.37-30.75-18.24-31-35.91C453.61,775.86,467.94,760,484.79,756.4Z"/><path class="cls-4" d="M694.35,792.79c0-12.12,0-24.25,0-36.37,17.48,3.5,30.89,18.46,30.9,36.11,0,17.8-13.47,33.06-30.87,36.49C694.45,816.94,694.36,804.87,694.35,792.79Z"/><path class="cls-4" d="M492.23,829.74a38.76,38.76,0,0,1-7.43-.72c0,.45,0,.9,0,1.35.1,9.11,8.24,12.65,27.54,12.65q79,0,158.09-.09c17,0,23.78-3.14,23.88-11,0-1,0-1.93,0-2.89a37.62,37.62,0,0,1-7.47.72c-21,0-38.15-16.52-38.4-36.63-.25-19.65,18.38-37.51,38.12-37.47a40.1,40.1,0,0,1,7.72.78V755c-.07-9.36-7-12.58-26.68-12.58q-78.33,0-156.68,0c-17.86,0-26.09,3.58-26.15,11.73,0,.77,0,1.53,0,2.3a34.34,34.34,0,0,1,7.16-.76c21.09.05,38.61,16.72,38.62,36.89S513.09,829.79,492.23,829.74Zm58.5-36.63c-.24-19.65,18.39-37.51,38.12-37.47,21.09.05,38.62,16.72,38.63,36.89S610,829.79,589.14,829.74C568.13,829.7,551,813.22,550.73,793.11Z"/><path class="cls-3" d="M558.17,656c13.6,0,24.91,10.78,24.91,23.79s-11.28,24-24.72,24-24.61-10.66-24.77-23.62C533.43,667.45,545.45,655.93,558.17,656Z"/><path class="cls-3" d="M620.67,656c13.6,0,24.9,10.78,24.91,23.79s-11.28,24-24.73,24-24.6-10.66-24.76-23.62C595.93,667.45,607.94,655.93,620.67,656Z"/><path class="cls-3" d="M683.7,656c13.6,0,24.9,10.78,24.91,23.79s-11.28,24-24.73,24-24.6-10.66-24.77-23.62C659,667.45,671,655.93,683.7,656Z"/><path class="cls-3" d="M558.17,595.06c13.6,0,24.91,10.77,24.91,23.78s-11.28,24-24.72,24-24.61-10.66-24.77-23.62C533.43,606.54,545.45,595,558.17,595.06Z"/><path class="cls-3" d="M620.67,595.06c13.6,0,24.9,10.77,24.91,23.78s-11.28,24-24.73,24-24.6-10.66-24.76-23.62C595.93,606.54,607.94,595,620.67,595.06Z"/><path class="cls-3" d="M683.7,595.06c13.6,0,24.9,10.77,24.91,23.78s-11.28,24-24.73,24-24.6-10.66-24.77-23.62C659,606.54,671,595,683.7,595.06Z"/><path class="cls-2" d="M470.55,718.34c-7.81,0-14.36-5.54-15.4-12.63l30.79,0C484.89,713,478.29,718.29,470.55,718.34Z"/><path class="cls-2" d="M455.86,605.55a8,8,0,0,1,8.29-8.37h12.78a8,8,0,0,1,8.29,8.37l-3.45,48.32H459.31Z"/><path class="cls-2" d="M433.74,659.9c0-4.2,2.09-6,6.6-6h19l1.5,21.08a8.13,8.13,0,0,0,8.29,7.32H472a8.13,8.13,0,0,0,8.29-7.32l1.5-21.07h8.47c5,0,17.1,1.66,17.11,6.48,0,6.5,0,13,0,19.49,0,6.72,0,13.44,0,20.16,0,4-1.75,5.66-6,5.67h-15.4a14.9,14.9,0,0,0,.16-2c0-8.15-6.79-14.67-15.53-14.69S455,695.66,455,703.73a13,13,0,0,0,.17,2H440.69c-4.87,0-6.92-1.82-6.94-6.52C433.68,686.1,433.7,673,433.74,659.9Z"/><path class="cls-3" d="M471.27,0H452.21c-6.81,0-11.17,6.28-8,11.5l21.37,35a6.92,6.92,0,0,1,0,7.33l-21.37,35c-3.19,5.22,1.17,11.5,8,11.5h19.06a9.3,9.3,0,0,0,8-4.17l24.25-39.69a11.85,11.85,0,0,0,0-12.58L479.26,4.17A9.3,9.3,0,0,0,471.27,0Z"/><path class="cls-2" d="M525.83,10.13H510.62c-5.44,0-8.92,5-6.37,9.17l17.06,27.92a5.55,5.55,0,0,1,0,5.85L504.25,81c-2.55,4.16.93,9.17,6.37,9.17h15.21a7.43,7.43,0,0,0,6.37-3.32l19.36-31.68a9.47,9.47,0,0,0,0-10L532.2,13.45A7.43,7.43,0,0,0,525.83,10.13Z"/><path class="cls-3" d="M573.66,0H554.6c-6.81,0-11.17,6.28-8,11.5l21.38,35a6.92,6.92,0,0,1,0,7.33l-21.38,35c-3.18,5.22,1.18,11.5,8,11.5h19.06a9.3,9.3,0,0,0,8-4.17L605.9,56.44a11.89,11.89,0,0,0,0-12.58L581.65,4.17A9.3,9.3,0,0,0,573.66,0Z"/><path class="cls-4" d="M469.18,133.64H452.69c-5.89,0-9.66,5.43-6.9,10l18.49,30.26a6,6,0,0,1,0,6.34l-18.49,30.26c-2.76,4.52,1,10,6.9,10h16.49a8,8,0,0,0,6.91-3.61l21-34.33a10.27,10.27,0,0,0,0-10.88l-21-34.33A8,8,0,0,0,469.18,133.64Z"/><path class="cls-2" d="M562.41,224.38c29.37-.06,52.21-22.79,52.17-51.24,0-29.23-23.87-51-52.23-51.22-28.69,0-52.35,23-52.33,51C510.05,201,532.57,224.43,562.41,224.38Z"/></pattern><clipPath id="clip-path-2"><rect class="cls-1" x="-837.17" y="-410.69" width="232.59" height="1094.33"/></clipPath><pattern id="ABAI_13-3" data-name="ABAI 13" width="869.87" height="980.19" patternTransform="translate(-3571.94 2674.65) scale(0.57 0.56)" patternUnits="userSpaceOnUse" viewBox="0 0 869.87 980.19"><rect class="cls-1" width="869.87" height="980.19"/><path class="cls-2" d="M206.5,145v59.82a19.91,19.91,0,0,1-20.17,19.65H136.48a19.91,19.91,0,0,1-20.17-19.65v-58.6q0-63.57,14.49-91.54A124.38,124.38,0,0,1,175,6.83a20.5,20.5,0,0,1,28.42,6.38l.06.09A19.28,19.28,0,0,1,198,39.21a71.26,71.26,0,0,0-21.65,24.27Q167.74,79.17,164.44,103c-1.64,11.82,7.74,22.35,20,22.35h1.91A19.92,19.92,0,0,1,206.5,145Z"/><path class="cls-2" d="M91.64,145v59.82A19.91,19.91,0,0,1,71.47,224.5H21.62A19.91,19.91,0,0,1,1.45,204.85v-58.6q0-63.57,14.49-91.54A124.45,124.45,0,0,1,60.12,6.83a20.5,20.5,0,0,1,28.42,6.38l.06.09a19.28,19.28,0,0,1-5.45,25.91A71.26,71.26,0,0,0,61.5,63.48Q52.88,79.17,49.58,103c-1.63,11.82,7.75,22.35,20,22.35h1.91A19.92,19.92,0,0,1,91.64,145Z"/><path class="cls-3" d="M325.61,400.26c-26.29.07-48.15,22.07-48.16,48.69,0,26.78,21.81,49.21,47.8,49.14,26.2-.06,47.57-21.82,47.88-48.36C373.44,423.78,350.21,400.2,325.61,400.26Z"/><path class="cls-3" d="M204.79,400.26c-26.29.07-48.14,22.07-48.15,48.69,0,26.78,21.8,49.21,47.79,49.14,26.2-.06,47.57-21.82,47.89-48.36C252.63,423.78,229.39,400.2,204.79,400.26Z"/><path class="cls-3" d="M83,400.26c-26.29.07-48.15,22.07-48.16,48.69,0,26.78,21.8,49.21,47.8,49.14,26.19-.06,47.56-21.82,47.88-48.36C130.78,423.78,107.55,400.2,83,400.26Z"/><path class="cls-2" d="M28.23,760.55V729.31a10.41,10.41,0,0,1,10.53-10.26h26a10.4,10.4,0,0,1,10.53,10.26v30.6q0,33.2-7.56,47.8a64.92,64.92,0,0,1-23.07,25,10.7,10.7,0,0,1-14.84-3.33l0,0a10.07,10.07,0,0,1,2.84-13.53A37,37,0,0,0,44,803.13q4.5-8.19,6.23-20.65a10.38,10.38,0,0,0-10.44-11.67h-1A10.4,10.4,0,0,1,28.23,760.55Z"/><path class="cls-2" d="M88.21,760.55V729.31a10.4,10.4,0,0,1,10.53-10.26h26a10.41,10.41,0,0,1,10.53,10.26v30.6q0,33.2-7.57,47.8a64.92,64.92,0,0,1-23.07,25,10.7,10.7,0,0,1-14.84-3.33l0,0a10.07,10.07,0,0,1,2.85-13.53,37.11,37.11,0,0,0,11.3-12.67q4.5-8.19,6.23-20.65a10.38,10.38,0,0,0-10.44-11.67h-1A10.39,10.39,0,0,1,88.21,760.55Z"/><path class="cls-2" d="M98.25,256.69q-43.81,0-87.62,0c-8,0-9.17,1.1-9.17,8.64q0,22.82,0,45.63h.05c0,15.79-.05,31.59,0,47.38,0,6.85,3.18,9.75,10.46,9.76q42.83,0,85.67,0c7.51,0,10.51-2.69,10.52-9.63q0-46.52-.09-93C108.07,259,105.38,256.7,98.25,256.69Z"/><path class="cls-2" d="M126.65,518.18q-53.24,0-106.48.05c-13.38,0-18.08,5.89-18.13,23-.07,23,0,46.11,0,69.16,0,23.86-.09,47.71,0,71.56.07,14.41,4.7,20.12,16.23,20.15q53.72.18,107.44.17c13.12,0,18.65-6.47,18.72-23.13q.27-69.76,0-139.53C144.39,524.72,138.8,518.19,126.65,518.18Z"/><path class="cls-4" d="M403.94,704.52c0,10.75-.18,21.51.07,32.26.23,10-3.54,15-12.63,14.45l-18.82.13c-40.4.27-80.79.82-121.19.63-10,0-16.94,4-22.73,12.73-11.9,18-24.13,35.65-36.26,53.42-6.08,8.92-13.1,11.34-18.78,6.64-3.5-2.89-4.78-6.55-4.77-11.54q.19-139.95.15-279.9c0-11,3.59-15,13.33-15.05q104.55-.07,209.1,0c9.27,0,12.8,4.27,12.79,15.61Q404.13,619.2,403.94,704.52ZM306.5,646.66a25.45,25.45,0,0,0,0-26.52l-50.12-83.72c-3.24-5.4-9.59-8.78-16.51-8.78h-39.4c-14.07,0-23.09,13.24-16.5,24.24l44.18,73.79a14.82,14.82,0,0,1,0,15.46L184,714.92c-6.59,11,2.43,24.24,16.5,24.24h39.4c6.92,0,13.27-3.38,16.51-8.78Zm94.27-25.76-40.31-67.31a15.39,15.39,0,0,0-13.27-7.07H315.5c-11.31,0-18.56,10.65-13.27,19.5l35.53,59.33a11.93,11.93,0,0,1,0,12.43l-35.53,59.34c-5.29,8.84,2,19.49,13.27,19.49h31.69a15.4,15.4,0,0,0,13.27-7.06l40.31-67.32A20.5,20.5,0,0,0,400.77,620.9Z"/><path class="cls-2" d="M282.49,932.61q0-34,7.74-48.91a65.83,65.83,0,0,1,11.95-16.23h-9.89c-5.17,0-9,1.94-10.13,6.11-2.44,8.78-4.68,17.61-6.56,26.48-4.21,19.86-2.29,39.91-2.37,59.9a5,5,0,0,0,2,3.19h0a2.3,2.3,0,0,0,1.51,2.06v0l1.2,1h0a9.9,9.9,0,0,0,5.88,2.69,10.18,10.18,0,0,1-1.28-5Z"/><path class="cls-2" d="M343.85,932.6q0-33.95,7.73-48.9a66.24,66.24,0,0,1,12-16.3l-33.06,0a10.35,10.35,0,0,1-4.4,8,38,38,0,0,0-11.57,13q-4.6,8.37-6.36,21.12a10.6,10.6,0,0,0,10.67,11.94h1A10.64,10.64,0,0,1,330.67,932v32a10.34,10.34,0,0,1-1.4,5.17l16,0a10.27,10.27,0,0,1-1.42-5.21Z"/><path class="cls-2" d="M402,909.68l.12-6.27c.05-9.41.26-18.83.09-28.24-.1-5-3.83-7.77-10-7.77h-.3a10.36,10.36,0,0,1-4.41,8,37.94,37.94,0,0,0-11.57,13q-4.6,8.39-6.37,21.13a10.61,10.61,0,0,0,10.67,11.94h1A10.64,10.64,0,0,1,392,932v31.95a10.27,10.27,0,0,1-1.48,5.3h4.7c2.3,0,4.52-.19,6-1.94,2-1,2.18-2.67,2.13-4.44Q402.66,936.26,402,909.68Z"/><path class="cls-2" d="M390.41,861.58l0-.05a11,11,0,0,0-15.19-3.4,68.68,68.68,0,0,0-11.59,9.28q14.14,0,28.31,0A10.38,10.38,0,0,0,390.41,861.58Z"/><path class="cls-2" d="M354.62,974.41h26.64a10.81,10.81,0,0,0,9.29-5.2l-45.28-.09A10.82,10.82,0,0,0,354.62,974.41Z"/><path class="cls-2" d="M329,861.58l0-.05a10.94,10.94,0,0,0-15.18-3.4,69,69,0,0,0-11.65,9.34l28.36,0A10.18,10.18,0,0,0,329,861.58Z"/><path class="cls-2" d="M283.77,968.88a10.8,10.8,0,0,0,9.49,5.53h26.63a10.81,10.81,0,0,0,9.37-5.33L285.63,969A12.57,12.57,0,0,1,283.77,968.88Z"/><path class="cls-3" d="M254.38,834.39a25.78,25.78,0,0,0,25.42-25.71c0-14.13-11.51-26-25.23-25.94s-25.11,11.52-25.28,25.54C229.13,822,241.39,834.43,254.38,834.39Z"/><path class="cls-3" d="M318.16,834.39a25.79,25.79,0,0,0,25.43-25.71c0-14.13-11.52-26-25.24-25.94s-25.11,11.52-25.28,25.54C292.91,822,305.17,834.43,318.16,834.39Z"/><path class="cls-3" d="M382.49,834.39a25.78,25.78,0,0,0,25.42-25.71c0-14.13-11.51-26-25.23-25.94s-25.11,11.52-25.28,25.54C357.23,822,369.5,834.43,382.49,834.39Z"/><path class="cls-4" d="M361.59,276.45c.16,24,.21,47.95,0,71.92a36.69,36.69,0,0,0,29-35.56C390.75,295.72,377.35,280,361.59,276.45Z"/><path class="cls-4" d="M165.61,312.49c0-12-.05-24,0-36a36.79,36.79,0,0,0-28.9,35.76c0,17.63,12.6,32.74,28.88,36.14C165.51,336.41,165.6,324.45,165.61,312.49Z"/><path class="cls-4" d="M354.63,349.09a35.28,35.28,0,0,0,6.94-.72v1.34c-.09,9-7.7,12.53-25.76,12.52q-73.92,0-147.85-.08c-15.86,0-22.23-3.12-22.32-10.92,0-1,0-1.91,0-2.86a34.22,34.22,0,0,0,7,.72c19.65,0,35.68-16.37,35.92-36.28.23-19.47-17.2-37.16-35.65-37.11a34.58,34.58,0,0,0-7.23.77V275c.07-9.27,6.55-12.46,25-12.46q73.28,0,146.53,0c16.71,0,24.4,3.53,24.46,11.61,0,.76,0,1.52,0,2.28a30.16,30.16,0,0,0-6.69-.75c-19.73.05-36.12,16.55-36.13,36.53S335.13,349.14,354.63,349.09Zm-54.71-36.28c.23-19.47-17.2-37.16-35.65-37.11-19.73.05-36.12,16.55-36.13,36.53S244.5,349.14,264,349.09,299.68,332.72,299.92,312.81Z"/><path class="cls-3" d="M116.41,914.09a23.63,23.63,0,0,0,23.29-23.56c0-12.95-10.55-23.8-23.12-23.77s-23,10.56-23.17,23.4C93.26,902.71,104.5,914.12,116.41,914.09Z"/><path class="cls-3" d="M174.85,914.09a23.64,23.64,0,0,0,23.3-23.56c0-12.95-10.55-23.8-23.12-23.77s-23,10.56-23.17,23.4C151.71,902.71,163,914.12,174.85,914.09Z"/><path class="cls-3" d="M233.8,914.09a23.64,23.64,0,0,0,23.3-23.56c0-12.95-10.55-23.8-23.13-23.77s-23,10.56-23.16,23.4C210.66,902.71,221.9,914.12,233.8,914.09Z"/><path class="cls-3" d="M116.41,974.41a23.62,23.62,0,0,0,23.29-23.55c0-13-10.55-23.81-23.12-23.78s-23,10.56-23.17,23.4C93.26,963,104.5,974.44,116.41,974.41Z"/><path class="cls-3" d="M174.85,974.41a23.63,23.63,0,0,0,23.3-23.55c0-13-10.55-23.81-23.12-23.78s-23,10.56-23.17,23.4C151.71,963,163,974.44,174.85,974.41Z"/><path class="cls-3" d="M233.8,974.41a23.63,23.63,0,0,0,23.3-23.55c0-13-10.55-23.81-23.13-23.78s-23,10.56-23.16,23.4C210.66,963,221.9,974.44,233.8,974.41Z"/><path class="cls-2" d="M34.44,972.31a14.61,14.61,0,0,0,14.41-12.5l-28.8,0A14.5,14.5,0,0,0,34.44,972.31Z"/><path class="cls-2" d="M48.18,860.6a7.78,7.78,0,0,0-7.75-8.29h-12a7.78,7.78,0,0,0-7.75,8.29L24,908.46H45Z"/><path class="cls-2" d="M68.86,914.43c0-4.16-2-6-6.16-6H45l-1.4,20.88a7.77,7.77,0,0,1-7.75,7.25H33.1a7.78,7.78,0,0,1-7.75-7.25L24,908.46H16c-4.64,0-16,1.65-16,6.42,0,6.43,0,12.87,0,19.3,0,6.65,0,13.31,0,20,0,4,1.63,5.62,5.63,5.63h14.4a14.59,14.59,0,0,1-.15-2,14.55,14.55,0,1,1,29.1.07,14.27,14.27,0,0,1-.15,2H62.37c4.55,0,6.47-1.8,6.49-6.45Q69,933.89,68.86,914.43Z"/><path class="cls-3" d="M266,138.18H247.52c-6.6,0-10.84,6.22-7.75,11.39l20.76,34.65a7,7,0,0,1,0,7.26l-20.76,34.65c-3.09,5.17,1.15,11.39,7.75,11.39H266a9,9,0,0,0,7.75-4.13l23.54-39.31a12,12,0,0,0,0-12.46l-23.54-39.31A9,9,0,0,0,266,138.18Z"/><path class="cls-2" d="M319,148.21H304.22c-5.28,0-8.65,5-6.19,9.09L314.59,185a5.55,5.55,0,0,1,0,5.8L298,218.4c-2.46,4.12.91,9.09,6.19,9.09H319a7.16,7.16,0,0,0,6.18-3.3L344,192.82a9.55,9.55,0,0,0,0-9.94l-18.79-31.37A7.16,7.16,0,0,0,319,148.21Z"/><path class="cls-3" d="M365.41,138.18h-18.5c-6.61,0-10.85,6.22-7.75,11.39l20.75,34.65a7,7,0,0,1,0,7.26l-20.75,34.65c-3.1,5.17,1.14,11.39,7.75,11.39h18.5a9,9,0,0,0,7.75-4.13l23.54-39.31a11.94,11.94,0,0,0,0-12.46l-23.54-39.31A9,9,0,0,0,365.41,138.18Z"/><path class="cls-4" d="M368.22,19.23h-16c-5.71,0-9.38,5.38-6.7,9.85l17.95,30a6.06,6.06,0,0,1,0,6.28l-17.95,30c-2.68,4.47,1,9.85,6.7,9.85h16a7.77,7.77,0,0,0,6.7-3.57l20.37-34a10.37,10.37,0,0,0,0-10.77l-20.37-34A7.75,7.75,0,0,0,368.22,19.23Z"/><path class="cls-2" d="M282.7,15.29A50.26,50.26,0,0,0,232.06,66c0,28.95,23.18,50.54,50.71,50.73,27.84,0,50.81-22.79,50.79-50.48C333.53,38.41,311.67,15.24,282.7,15.29Z"/><path class="cls-2" d="M640.92,93.38V33c0-10.95,9.31-19.84,20.78-19.84h51.36c11.47,0,20.78,8.89,20.78,19.84V92.15q0,64.18-14.93,92.43a126.59,126.59,0,0,1-45.52,48.34c-9.91,6.19-23.22,3.28-29.28-6.44l-.05-.09a19.23,19.23,0,0,1,5.6-26.17A72.39,72.39,0,0,0,672,175.72q8.88-15.84,12.29-39.93c1.68-11.93-8-22.57-20.59-22.57h-2C650.23,113.22,640.92,104.34,640.92,93.38Z"/><path class="cls-2" d="M759.26,93.38V33c0-10.95,9.3-19.84,20.78-19.84h51.35c11.48,0,20.78,8.89,20.78,19.84V92.15q0,64.18-14.93,92.43a126.54,126.54,0,0,1-45.51,48.33c-9.91,6.2-23.23,3.29-29.29-6.43l-.05-.09A19.24,19.24,0,0,1,768,200.22a72.49,72.49,0,0,0,22.31-24.5q8.88-15.84,12.28-39.93c1.68-11.93-8-22.57-20.59-22.57h-2C768.56,113.22,759.26,104.34,759.26,93.38Z"/><path class="cls-3" d="M523.26,881.41c28.11.07,51.48,22.28,51.49,49.16,0,27-23.31,49.68-51.11,49.62-28-.06-50.86-22-51.19-48.83C472.11,905.15,497,881.34,523.26,881.41Z"/><path class="cls-3" d="M652.45,881.41c28.11.07,51.48,22.28,51.49,49.16,0,27-23.31,49.68-51.11,49.62-28-.06-50.86-22-51.2-48.83C601.3,905.15,626.14,881.34,652.45,881.41Z"/><path class="cls-3" d="M782.73,881.41c28.12.07,51.48,22.28,51.5,49.16,0,27-23.32,49.68-51.11,49.62-28-.06-50.86-22-51.2-48.83C731.59,905.15,756.43,881.34,782.73,881.41Z"/><path class="cls-2" d="M470.21,500.22V468.69a10.62,10.62,0,0,1,10.85-10.37h26.82a10.62,10.62,0,0,1,10.85,10.37v30.89q0,33.51-7.79,48.26a66.21,66.21,0,0,1-23.77,25.24,11.17,11.17,0,0,1-15.29-3.36l0-.05A10,10,0,0,1,474.78,556a37.84,37.84,0,0,0,11.65-12.8q4.63-8.26,6.41-20.84c.88-6.23-4.17-11.79-10.75-11.79h-1A10.62,10.62,0,0,1,470.21,500.22Z"/><path class="cls-2" d="M532,500.22V468.69a10.62,10.62,0,0,1,10.85-10.37h26.82a10.62,10.62,0,0,1,10.85,10.37v30.89q0,33.51-7.8,48.26A66.1,66.1,0,0,1,549,573.08a11.17,11.17,0,0,1-15.29-3.36l0-.05A10,10,0,0,1,536.57,556a37.81,37.81,0,0,0,11.64-12.8q4.63-8.26,6.42-20.84c.88-6.23-4.17-11.79-10.75-11.79h-1A10.62,10.62,0,0,1,532,500.22Z"/><path class="cls-2" d="M766.37,736.45q46.85,0,93.69,0c8.59,0,9.8,1.12,9.81,8.72q0,23,0,46.07h0c0,15.95,0,31.9,0,47.84,0,6.92-3.4,9.85-11.18,9.86q-45.81,0-91.6,0c-8,0-11.25-2.71-11.25-9.73q-.06-47,.09-93.91C755.88,738.75,758.74,736.46,766.37,736.45Z"/><path class="cls-2" d="M571.61,255.51q-54.86,0-109.7.05c-13.78,0-18.63,5.95-18.68,23.23-.07,23.28,0,46.56,0,69.84,0,24.08-.09,48.16,0,72.24.07,14.55,4.84,20.31,16.72,20.35q55.33.18,110.69.17c13.52,0,19.22-6.53,19.28-23.35q.29-70.44,0-140.88C589.88,262.11,584.12,255.52,571.61,255.51Z"/><path class="cls-4" d="M857.28,443.66c0,10.85-.18,21.71.07,32.56.24,10.07-3.64,15.17-13,14.59l-19.38.13c-41.62.28-83.24.84-124.86.64-10.31-.05-17.46,4-23.42,12.85-12.26,18.14-24.86,36-37.35,53.94-6.27,9-13.5,11.45-19.35,6.71-3.61-2.92-4.93-6.62-4.92-11.66q.2-141.3.16-282.6c0-11.15,3.7-15.18,13.73-15.19q107.71-.09,215.43,0c9.55,0,13.18,4.32,13.17,15.77Q857.48,357.52,857.28,443.66ZM756.9,385.24a25.27,25.27,0,0,0,0-26.78l-51.64-84.53c-3.34-5.46-9.88-8.87-17-8.87h-40.6c-14.5,0-23.79,13.37-17,24.48L676.18,364a14.75,14.75,0,0,1,0,15.61l-45.52,74.5c-6.79,11.11,2.5,24.48,17,24.48h40.6c7.12,0,13.66-3.41,17-8.87Zm97.11-26-41.53-68c-2.68-4.39-7.94-7.13-13.67-7.13H766.17c-11.66,0-19.13,10.75-13.67,19.68l36.6,59.91a11.84,11.84,0,0,1,0,12.55l-36.6,59.91c-5.46,8.93,2,19.68,13.67,19.68h32.64c5.73,0,11-2.75,13.67-7.13l41.53-68A20.3,20.3,0,0,0,854,359.23Z"/><path class="cls-2" d="M735.76,637.27q0,34.28,8.28,49.37A66.79,66.79,0,0,0,756.82,703l-10.58,0c-5.53,0-9.6-1.95-10.83-6.17-2.61-8.86-5-17.77-7-26.73-4.5-20-2.44-40.3-2.53-60.48a5,5,0,0,1,2.14-3.22h0a2.34,2.34,0,0,1,1.63-2.08h0l1.28-1h0a11,11,0,0,1,6.29-2.72,9.92,9.92,0,0,0-1.37,5Z"/><path class="cls-2" d="M801.38,637.27q0,34.29,8.26,49.38a66.85,66.85,0,0,0,12.84,16.45q-17.67,0-35.35,0a10.3,10.3,0,0,0-4.71-8.07,39.38,39.38,0,0,1-12.37-13.09q-4.92-8.48-6.8-21.34c-.93-6.37,4.43-12.05,11.42-12.05h1.09c6.36,0,11.52-4.74,11.52-10.6V605.66a9.9,9.9,0,0,0-1.5-5.22l17.12,0a9.8,9.8,0,0,0-1.53,5.25Z"/><path class="cls-2" d="M863.57,660.41l.12,6.33c0,9.51.28,19,.09,28.52-.1,5-4.09,7.84-10.69,7.85h-.33A10.31,10.31,0,0,0,848,695a39.29,39.29,0,0,1-12.37-13.09q-4.92-8.46-6.81-21.33c-.93-6.37,4.43-12.06,11.42-12.06h1.09c6.36,0,11.52-4.74,11.52-10.6V605.66a9.82,9.82,0,0,0-1.59-5.35h5c2.46,0,4.83.19,6.4,2,2.16,1.06,2.34,2.69,2.29,4.49Q864.27,633.57,863.57,660.41Z"/><path class="cls-2" d="M851.15,709l0,0c-3.36,5.19-10.74,6.75-16.23,3.44a73.24,73.24,0,0,1-12.4-9.38l30.27,0A9.89,9.89,0,0,1,851.15,709Z"/><path class="cls-2" d="M812.89,595.06h28.48a11.71,11.71,0,0,1,9.93,5.25l-48.41.09A11.72,11.72,0,0,1,812.89,595.06Z"/><path class="cls-2" d="M785.54,709l0,0c-3.36,5.19-10.74,6.75-16.24,3.44A73.49,73.49,0,0,1,756.82,703l30.32,0A9.93,9.93,0,0,1,785.54,709Z"/><path class="cls-2" d="M737.13,600.64a11.7,11.7,0,0,1,10.15-5.58h28.48a11.71,11.71,0,0,1,10,5.38l-46.66.09A14.31,14.31,0,0,0,737.13,600.64Z"/><path class="cls-3" d="M703.2,574.78a26.3,26.3,0,0,0,26.19-26c0-14.27-11.86-26.22-26-26.19a26.19,26.19,0,0,0-26,25.78C677.18,562.24,689.82,574.81,703.2,574.78Z"/><path class="cls-3" d="M768.91,574.78c14.3,0,26.19-11.76,26.19-26s-11.86-26.22-26-26.19a26.19,26.19,0,0,0-26.05,25.78C742.89,562.24,755.53,574.81,768.91,574.78Z"/><path class="cls-3" d="M835.18,574.78c14.3,0,26.19-11.76,26.19-26s-11.85-26.22-26-26.19a26.2,26.2,0,0,0-26,25.78C809.17,562.24,821.8,574.81,835.18,574.78Z"/><path class="cls-4" d="M484.79,756.4c-.17,24.21-.23,48.42,0,72.62-17.47-3.37-30.75-18.24-31-35.91C453.61,775.86,467.94,760,484.79,756.4Z"/><path class="cls-4" d="M694.35,792.79c0-12.12,0-24.25,0-36.37,17.48,3.5,30.89,18.46,30.9,36.11,0,17.8-13.47,33.06-30.87,36.49C694.45,816.94,694.36,804.87,694.35,792.79Z"/><path class="cls-4" d="M492.23,829.74a38.76,38.76,0,0,1-7.43-.72c0,.45,0,.9,0,1.35.1,9.11,8.24,12.65,27.54,12.65q79,0,158.09-.09c17,0,23.78-3.14,23.88-11,0-1,0-1.93,0-2.89a37.62,37.62,0,0,1-7.47.72c-21,0-38.15-16.52-38.4-36.63-.25-19.65,18.38-37.51,38.12-37.47a40.1,40.1,0,0,1,7.72.78V755c-.07-9.36-7-12.58-26.68-12.58q-78.33,0-156.68,0c-17.86,0-26.09,3.58-26.15,11.73,0,.77,0,1.53,0,2.3a34.34,34.34,0,0,1,7.16-.76c21.09.05,38.61,16.72,38.62,36.89S513.09,829.79,492.23,829.74Zm58.5-36.63c-.24-19.65,18.39-37.51,38.12-37.47,21.09.05,38.62,16.72,38.63,36.89S610,829.79,589.14,829.74C568.13,829.7,551,813.22,550.73,793.11Z"/><path class="cls-3" d="M558.17,656c13.6,0,24.91,10.78,24.91,23.79s-11.28,24-24.72,24-24.61-10.66-24.77-23.62C533.43,667.45,545.45,655.93,558.17,656Z"/><path class="cls-3" d="M620.67,656c13.6,0,24.9,10.78,24.91,23.79s-11.28,24-24.73,24-24.6-10.66-24.76-23.62C595.93,667.45,607.94,655.93,620.67,656Z"/><path class="cls-3" d="M683.7,656c13.6,0,24.9,10.78,24.91,23.79s-11.28,24-24.73,24-24.6-10.66-24.77-23.62C659,667.45,671,655.93,683.7,656Z"/><path class="cls-3" d="M558.17,595.06c13.6,0,24.91,10.77,24.91,23.78s-11.28,24-24.72,24-24.61-10.66-24.77-23.62C533.43,606.54,545.45,595,558.17,595.06Z"/><path class="cls-3" d="M620.67,595.06c13.6,0,24.9,10.77,24.91,23.78s-11.28,24-24.73,24-24.6-10.66-24.76-23.62C595.93,606.54,607.94,595,620.67,595.06Z"/><path class="cls-3" d="M683.7,595.06c13.6,0,24.9,10.77,24.91,23.78s-11.28,24-24.73,24-24.6-10.66-24.77-23.62C659,606.54,671,595,683.7,595.06Z"/><path class="cls-2" d="M470.55,718.34c-7.81,0-14.36-5.54-15.4-12.63l30.79,0C484.89,713,478.29,718.29,470.55,718.34Z"/><path class="cls-2" d="M455.86,605.55a8,8,0,0,1,8.29-8.37h12.78a8,8,0,0,1,8.29,8.37l-3.45,48.32H459.31Z"/><path class="cls-2" d="M433.74,659.9c0-4.2,2.09-6,6.6-6h19l1.5,21.08a8.13,8.13,0,0,0,8.29,7.32H472a8.13,8.13,0,0,0,8.29-7.32l1.5-21.07h8.47c5,0,17.1,1.66,17.11,6.48,0,6.5,0,13,0,19.49,0,6.72,0,13.44,0,20.16,0,4-1.75,5.66-6,5.67h-15.4a14.9,14.9,0,0,0,.16-2c0-8.15-6.79-14.67-15.53-14.69S455,695.66,455,703.73a13,13,0,0,0,.17,2H440.69c-4.87,0-6.92-1.82-6.94-6.52C433.68,686.1,433.7,673,433.74,659.9Z"/><path class="cls-3" d="M471.27,0H452.21c-6.81,0-11.17,6.28-8,11.5l21.37,35a6.92,6.92,0,0,1,0,7.33l-21.37,35c-3.19,5.22,1.17,11.5,8,11.5h19.06a9.3,9.3,0,0,0,8-4.17l24.25-39.69a11.85,11.85,0,0,0,0-12.58L479.26,4.17A9.3,9.3,0,0,0,471.27,0Z"/><path class="cls-2" d="M525.83,10.13H510.62c-5.44,0-8.92,5-6.37,9.17l17.06,27.92a5.55,5.55,0,0,1,0,5.85L504.25,81c-2.55,4.16.93,9.17,6.37,9.17h15.21a7.43,7.43,0,0,0,6.37-3.32l19.36-31.68a9.47,9.47,0,0,0,0-10L532.2,13.45A7.43,7.43,0,0,0,525.83,10.13Z"/><path class="cls-3" d="M573.66,0H554.6c-6.81,0-11.17,6.28-8,11.5l21.38,35a6.92,6.92,0,0,1,0,7.33l-21.38,35c-3.18,5.22,1.18,11.5,8,11.5h19.06a9.3,9.3,0,0,0,8-4.17L605.9,56.44a11.89,11.89,0,0,0,0-12.58L581.65,4.17A9.3,9.3,0,0,0,573.66,0Z"/><path class="cls-4" d="M469.18,133.64H452.69c-5.89,0-9.66,5.43-6.9,10l18.49,30.26a6,6,0,0,1,0,6.34l-18.49,30.26c-2.76,4.52,1,10,6.9,10h16.49a8,8,0,0,0,6.91-3.61l21-34.33a10.27,10.27,0,0,0,0-10.88l-21-34.33A8,8,0,0,0,469.18,133.64Z"/><path class="cls-2" d="M562.41,224.38c29.37-.06,52.21-22.79,52.17-51.24,0-29.23-23.87-51-52.23-51.22-28.69,0-52.35,23-52.33,51C510.05,201,532.57,224.43,562.41,224.38Z"/></pattern><clipPath id="clip-path-3"><rect class="cls-1" width="184.57" height="868.39"/></clipPath><pattern id="ABAI_13-5" data-name="ABAI 13" width="869.87" height="980.19" patternTransform="translate(822.59 873.4) scale(0.45 0.44)" patternUnits="userSpaceOnUse" viewBox="0 0 869.87 980.19"><rect class="cls-1" width="869.87" height="980.19"/><path class="cls-2" d="M206.5,145v59.82a19.91,19.91,0,0,1-20.17,19.65H136.48a19.91,19.91,0,0,1-20.17-19.65v-58.6q0-63.57,14.49-91.54A124.38,124.38,0,0,1,175,6.83a20.5,20.5,0,0,1,28.42,6.38l.06.09A19.28,19.28,0,0,1,198,39.21a71.26,71.26,0,0,0-21.65,24.27Q167.74,79.17,164.44,103c-1.64,11.82,7.74,22.35,20,22.35h1.91A19.92,19.92,0,0,1,206.5,145Z"/><path class="cls-2" d="M91.64,145v59.82A19.91,19.91,0,0,1,71.47,224.5H21.62A19.91,19.91,0,0,1,1.45,204.85v-58.6q0-63.57,14.49-91.54A124.45,124.45,0,0,1,60.12,6.83a20.5,20.5,0,0,1,28.42,6.38l.06.09a19.28,19.28,0,0,1-5.45,25.91A71.26,71.26,0,0,0,61.5,63.48Q52.88,79.17,49.58,103c-1.63,11.82,7.75,22.35,20,22.35h1.91A19.92,19.92,0,0,1,91.64,145Z"/><path class="cls-3" d="M325.61,400.26c-26.29.07-48.15,22.07-48.16,48.69,0,26.78,21.81,49.21,47.8,49.14,26.2-.06,47.57-21.82,47.88-48.36C373.44,423.78,350.21,400.2,325.61,400.26Z"/><path class="cls-3" d="M204.79,400.26c-26.29.07-48.14,22.07-48.15,48.69,0,26.78,21.8,49.21,47.79,49.14,26.2-.06,47.57-21.82,47.89-48.36C252.63,423.78,229.39,400.2,204.79,400.26Z"/><path class="cls-3" d="M83,400.26c-26.29.07-48.15,22.07-48.16,48.69,0,26.78,21.8,49.21,47.8,49.14,26.19-.06,47.56-21.82,47.88-48.36C130.78,423.78,107.55,400.2,83,400.26Z"/><path class="cls-2" d="M28.23,760.55V729.31a10.41,10.41,0,0,1,10.53-10.26h26a10.4,10.4,0,0,1,10.53,10.26v30.6q0,33.2-7.56,47.8a64.92,64.92,0,0,1-23.07,25,10.7,10.7,0,0,1-14.84-3.33l0,0a10.07,10.07,0,0,1,2.84-13.53A37,37,0,0,0,44,803.13q4.5-8.19,6.23-20.65a10.38,10.38,0,0,0-10.44-11.67h-1A10.4,10.4,0,0,1,28.23,760.55Z"/><path class="cls-2" d="M88.21,760.55V729.31a10.4,10.4,0,0,1,10.53-10.26h26a10.41,10.41,0,0,1,10.53,10.26v30.6q0,33.2-7.57,47.8a64.92,64.92,0,0,1-23.07,25,10.7,10.7,0,0,1-14.84-3.33l0,0a10.07,10.07,0,0,1,2.85-13.53,37.11,37.11,0,0,0,11.3-12.67q4.5-8.19,6.23-20.65a10.38,10.38,0,0,0-10.44-11.67h-1A10.39,10.39,0,0,1,88.21,760.55Z"/><path class="cls-2" d="M98.25,256.69q-43.81,0-87.62,0c-8,0-9.17,1.1-9.17,8.64q0,22.82,0,45.63h.05c0,15.79-.05,31.59,0,47.38,0,6.85,3.18,9.75,10.46,9.76q42.83,0,85.67,0c7.51,0,10.51-2.69,10.52-9.63q0-46.52-.09-93C108.07,259,105.38,256.7,98.25,256.69Z"/><path class="cls-2" d="M126.65,518.18q-53.24,0-106.48.05c-13.38,0-18.08,5.89-18.13,23-.07,23,0,46.11,0,69.16,0,23.86-.09,47.71,0,71.56.07,14.41,4.7,20.12,16.23,20.15q53.72.18,107.44.17c13.12,0,18.65-6.47,18.72-23.13q.27-69.76,0-139.53C144.39,524.72,138.8,518.19,126.65,518.18Z"/><path class="cls-4" d="M403.94,704.52c0,10.75-.18,21.51.07,32.26.23,10-3.54,15-12.63,14.45l-18.82.13c-40.4.27-80.79.82-121.19.63-10,0-16.94,4-22.73,12.73-11.9,18-24.13,35.65-36.26,53.42-6.08,8.92-13.1,11.34-18.78,6.64-3.5-2.89-4.78-6.55-4.77-11.54q.19-139.95.15-279.9c0-11,3.59-15,13.33-15.05q104.55-.07,209.1,0c9.27,0,12.8,4.27,12.79,15.61Q404.13,619.2,403.94,704.52ZM306.5,646.66a25.45,25.45,0,0,0,0-26.52l-50.12-83.72c-3.24-5.4-9.59-8.78-16.51-8.78h-39.4c-14.07,0-23.09,13.24-16.5,24.24l44.18,73.79a14.82,14.82,0,0,1,0,15.46L184,714.92c-6.59,11,2.43,24.24,16.5,24.24h39.4c6.92,0,13.27-3.38,16.51-8.78Zm94.27-25.76-40.31-67.31a15.39,15.39,0,0,0-13.27-7.07H315.5c-11.31,0-18.56,10.65-13.27,19.5l35.53,59.33a11.93,11.93,0,0,1,0,12.43l-35.53,59.34c-5.29,8.84,2,19.49,13.27,19.49h31.69a15.4,15.4,0,0,0,13.27-7.06l40.31-67.32A20.5,20.5,0,0,0,400.77,620.9Z"/><path class="cls-2" d="M282.49,932.61q0-34,7.74-48.91a65.83,65.83,0,0,1,11.95-16.23h-9.89c-5.17,0-9,1.94-10.13,6.11-2.44,8.78-4.68,17.61-6.56,26.48-4.21,19.86-2.29,39.91-2.37,59.9a5,5,0,0,0,2,3.19h0a2.3,2.3,0,0,0,1.51,2.06v0l1.2,1h0a9.9,9.9,0,0,0,5.88,2.69,10.18,10.18,0,0,1-1.28-5Z"/><path class="cls-2" d="M343.85,932.6q0-33.95,7.73-48.9a66.24,66.24,0,0,1,12-16.3l-33.06,0a10.35,10.35,0,0,1-4.4,8,38,38,0,0,0-11.57,13q-4.6,8.37-6.36,21.12a10.6,10.6,0,0,0,10.67,11.94h1A10.64,10.64,0,0,1,330.67,932v32a10.34,10.34,0,0,1-1.4,5.17l16,0a10.27,10.27,0,0,1-1.42-5.21Z"/><path class="cls-2" d="M402,909.68l.12-6.27c.05-9.41.26-18.83.09-28.24-.1-5-3.83-7.77-10-7.77h-.3a10.36,10.36,0,0,1-4.41,8,37.94,37.94,0,0,0-11.57,13q-4.6,8.39-6.37,21.13a10.61,10.61,0,0,0,10.67,11.94h1A10.64,10.64,0,0,1,392,932v31.95a10.27,10.27,0,0,1-1.48,5.3h4.7c2.3,0,4.52-.19,6-1.94,2-1,2.18-2.67,2.13-4.44Q402.66,936.26,402,909.68Z"/><path class="cls-2" d="M390.41,861.58l0-.05a11,11,0,0,0-15.19-3.4,68.68,68.68,0,0,0-11.59,9.28q14.14,0,28.31,0A10.38,10.38,0,0,0,390.41,861.58Z"/><path class="cls-2" d="M354.62,974.41h26.64a10.81,10.81,0,0,0,9.29-5.2l-45.28-.09A10.82,10.82,0,0,0,354.62,974.41Z"/><path class="cls-2" d="M329,861.58l0-.05a10.94,10.94,0,0,0-15.18-3.4,69,69,0,0,0-11.65,9.34l28.36,0A10.18,10.18,0,0,0,329,861.58Z"/><path class="cls-2" d="M283.77,968.88a10.8,10.8,0,0,0,9.49,5.53h26.63a10.81,10.81,0,0,0,9.37-5.33L285.63,969A12.57,12.57,0,0,1,283.77,968.88Z"/><path class="cls-3" d="M254.38,834.39a25.78,25.78,0,0,0,25.42-25.71c0-14.13-11.51-26-25.23-25.94s-25.11,11.52-25.28,25.54C229.13,822,241.39,834.43,254.38,834.39Z"/><path class="cls-3" d="M318.16,834.39a25.79,25.79,0,0,0,25.43-25.71c0-14.13-11.52-26-25.24-25.94s-25.11,11.52-25.28,25.54C292.91,822,305.17,834.43,318.16,834.39Z"/><path class="cls-3" d="M382.49,834.39a25.78,25.78,0,0,0,25.42-25.71c0-14.13-11.51-26-25.23-25.94s-25.11,11.52-25.28,25.54C357.23,822,369.5,834.43,382.49,834.39Z"/><path class="cls-4" d="M361.59,276.45c.16,24,.21,47.95,0,71.92a36.69,36.69,0,0,0,29-35.56C390.75,295.72,377.35,280,361.59,276.45Z"/><path class="cls-4" d="M165.61,312.49c0-12-.05-24,0-36a36.79,36.79,0,0,0-28.9,35.76c0,17.63,12.6,32.74,28.88,36.14C165.51,336.41,165.6,324.45,165.61,312.49Z"/><path class="cls-4" d="M354.63,349.09a35.28,35.28,0,0,0,6.94-.72v1.34c-.09,9-7.7,12.53-25.76,12.52q-73.92,0-147.85-.08c-15.86,0-22.23-3.12-22.32-10.92,0-1,0-1.91,0-2.86a34.22,34.22,0,0,0,7,.72c19.65,0,35.68-16.37,35.92-36.28.23-19.47-17.2-37.16-35.65-37.11a34.58,34.58,0,0,0-7.23.77V275c.07-9.27,6.55-12.46,25-12.46q73.28,0,146.53,0c16.71,0,24.4,3.53,24.46,11.61,0,.76,0,1.52,0,2.28a30.16,30.16,0,0,0-6.69-.75c-19.73.05-36.12,16.55-36.13,36.53S335.13,349.14,354.63,349.09Zm-54.71-36.28c.23-19.47-17.2-37.16-35.65-37.11-19.73.05-36.12,16.55-36.13,36.53S244.5,349.14,264,349.09,299.68,332.72,299.92,312.81Z"/><path class="cls-3" d="M116.41,914.09a23.63,23.63,0,0,0,23.29-23.56c0-12.95-10.55-23.8-23.12-23.77s-23,10.56-23.17,23.4C93.26,902.71,104.5,914.12,116.41,914.09Z"/><path class="cls-3" d="M174.85,914.09a23.64,23.64,0,0,0,23.3-23.56c0-12.95-10.55-23.8-23.12-23.77s-23,10.56-23.17,23.4C151.71,902.71,163,914.12,174.85,914.09Z"/><path class="cls-3" d="M233.8,914.09a23.64,23.64,0,0,0,23.3-23.56c0-12.95-10.55-23.8-23.13-23.77s-23,10.56-23.16,23.4C210.66,902.71,221.9,914.12,233.8,914.09Z"/><path class="cls-3" d="M116.41,974.41a23.62,23.62,0,0,0,23.29-23.55c0-13-10.55-23.81-23.12-23.78s-23,10.56-23.17,23.4C93.26,963,104.5,974.44,116.41,974.41Z"/><path class="cls-3" d="M174.85,974.41a23.63,23.63,0,0,0,23.3-23.55c0-13-10.55-23.81-23.12-23.78s-23,10.56-23.17,23.4C151.71,963,163,974.44,174.85,974.41Z"/><path class="cls-3" d="M233.8,974.41a23.63,23.63,0,0,0,23.3-23.55c0-13-10.55-23.81-23.13-23.78s-23,10.56-23.16,23.4C210.66,963,221.9,974.44,233.8,974.41Z"/><path class="cls-2" d="M34.44,972.31a14.61,14.61,0,0,0,14.41-12.5l-28.8,0A14.5,14.5,0,0,0,34.44,972.31Z"/><path class="cls-2" d="M48.18,860.6a7.78,7.78,0,0,0-7.75-8.29h-12a7.78,7.78,0,0,0-7.75,8.29L24,908.46H45Z"/><path class="cls-2" d="M68.86,914.43c0-4.16-2-6-6.16-6H45l-1.4,20.88a7.77,7.77,0,0,1-7.75,7.25H33.1a7.78,7.78,0,0,1-7.75-7.25L24,908.46H16c-4.64,0-16,1.65-16,6.42,0,6.43,0,12.87,0,19.3,0,6.65,0,13.31,0,20,0,4,1.63,5.62,5.63,5.63h14.4a14.59,14.59,0,0,1-.15-2,14.55,14.55,0,1,1,29.1.07,14.27,14.27,0,0,1-.15,2H62.37c4.55,0,6.47-1.8,6.49-6.45Q69,933.89,68.86,914.43Z"/><path class="cls-3" d="M266,138.18H247.52c-6.6,0-10.84,6.22-7.75,11.39l20.76,34.65a7,7,0,0,1,0,7.26l-20.76,34.65c-3.09,5.17,1.15,11.39,7.75,11.39H266a9,9,0,0,0,7.75-4.13l23.54-39.31a12,12,0,0,0,0-12.46l-23.54-39.31A9,9,0,0,0,266,138.18Z"/><path class="cls-2" d="M319,148.21H304.22c-5.28,0-8.65,5-6.19,9.09L314.59,185a5.55,5.55,0,0,1,0,5.8L298,218.4c-2.46,4.12.91,9.09,6.19,9.09H319a7.16,7.16,0,0,0,6.18-3.3L344,192.82a9.55,9.55,0,0,0,0-9.94l-18.79-31.37A7.16,7.16,0,0,0,319,148.21Z"/><path class="cls-3" d="M365.41,138.18h-18.5c-6.61,0-10.85,6.22-7.75,11.39l20.75,34.65a7,7,0,0,1,0,7.26l-20.75,34.65c-3.1,5.17,1.14,11.39,7.75,11.39h18.5a9,9,0,0,0,7.75-4.13l23.54-39.31a11.94,11.94,0,0,0,0-12.46l-23.54-39.31A9,9,0,0,0,365.41,138.18Z"/><path class="cls-4" d="M368.22,19.23h-16c-5.71,0-9.38,5.38-6.7,9.85l17.95,30a6.06,6.06,0,0,1,0,6.28l-17.95,30c-2.68,4.47,1,9.85,6.7,9.85h16a7.77,7.77,0,0,0,6.7-3.57l20.37-34a10.37,10.37,0,0,0,0-10.77l-20.37-34A7.75,7.75,0,0,0,368.22,19.23Z"/><path class="cls-2" d="M282.7,15.29A50.26,50.26,0,0,0,232.06,66c0,28.95,23.18,50.54,50.71,50.73,27.84,0,50.81-22.79,50.79-50.48C333.53,38.41,311.67,15.24,282.7,15.29Z"/><path class="cls-2" d="M640.92,93.38V33c0-10.95,9.31-19.84,20.78-19.84h51.36c11.47,0,20.78,8.89,20.78,19.84V92.15q0,64.18-14.93,92.43a126.59,126.59,0,0,1-45.52,48.34c-9.91,6.19-23.22,3.28-29.28-6.44l-.05-.09a19.23,19.23,0,0,1,5.6-26.17A72.39,72.39,0,0,0,672,175.72q8.88-15.84,12.29-39.93c1.68-11.93-8-22.57-20.59-22.57h-2C650.23,113.22,640.92,104.34,640.92,93.38Z"/><path class="cls-2" d="M759.26,93.38V33c0-10.95,9.3-19.84,20.78-19.84h51.35c11.48,0,20.78,8.89,20.78,19.84V92.15q0,64.18-14.93,92.43a126.54,126.54,0,0,1-45.51,48.33c-9.91,6.2-23.23,3.29-29.29-6.43l-.05-.09A19.24,19.24,0,0,1,768,200.22a72.49,72.49,0,0,0,22.31-24.5q8.88-15.84,12.28-39.93c1.68-11.93-8-22.57-20.59-22.57h-2C768.56,113.22,759.26,104.34,759.26,93.38Z"/><path class="cls-3" d="M523.26,881.41c28.11.07,51.48,22.28,51.49,49.16,0,27-23.31,49.68-51.11,49.62-28-.06-50.86-22-51.19-48.83C472.11,905.15,497,881.34,523.26,881.41Z"/><path class="cls-3" d="M652.45,881.41c28.11.07,51.48,22.28,51.49,49.16,0,27-23.31,49.68-51.11,49.62-28-.06-50.86-22-51.2-48.83C601.3,905.15,626.14,881.34,652.45,881.41Z"/><path class="cls-3" d="M782.73,881.41c28.12.07,51.48,22.28,51.5,49.16,0,27-23.32,49.68-51.11,49.62-28-.06-50.86-22-51.2-48.83C731.59,905.15,756.43,881.34,782.73,881.41Z"/><path class="cls-2" d="M470.21,500.22V468.69a10.62,10.62,0,0,1,10.85-10.37h26.82a10.62,10.62,0,0,1,10.85,10.37v30.89q0,33.51-7.79,48.26a66.21,66.21,0,0,1-23.77,25.24,11.17,11.17,0,0,1-15.29-3.36l0-.05A10,10,0,0,1,474.78,556a37.84,37.84,0,0,0,11.65-12.8q4.63-8.26,6.41-20.84c.88-6.23-4.17-11.79-10.75-11.79h-1A10.62,10.62,0,0,1,470.21,500.22Z"/><path class="cls-2" d="M532,500.22V468.69a10.62,10.62,0,0,1,10.85-10.37h26.82a10.62,10.62,0,0,1,10.85,10.37v30.89q0,33.51-7.8,48.26A66.1,66.1,0,0,1,549,573.08a11.17,11.17,0,0,1-15.29-3.36l0-.05A10,10,0,0,1,536.57,556a37.81,37.81,0,0,0,11.64-12.8q4.63-8.26,6.42-20.84c.88-6.23-4.17-11.79-10.75-11.79h-1A10.62,10.62,0,0,1,532,500.22Z"/><path class="cls-2" d="M766.37,736.45q46.85,0,93.69,0c8.59,0,9.8,1.12,9.81,8.72q0,23,0,46.07h0c0,15.95,0,31.9,0,47.84,0,6.92-3.4,9.85-11.18,9.86q-45.81,0-91.6,0c-8,0-11.25-2.71-11.25-9.73q-.06-47,.09-93.91C755.88,738.75,758.74,736.46,766.37,736.45Z"/><path class="cls-2" d="M571.61,255.51q-54.86,0-109.7.05c-13.78,0-18.63,5.95-18.68,23.23-.07,23.28,0,46.56,0,69.84,0,24.08-.09,48.16,0,72.24.07,14.55,4.84,20.31,16.72,20.35q55.33.18,110.69.17c13.52,0,19.22-6.53,19.28-23.35q.29-70.44,0-140.88C589.88,262.11,584.12,255.52,571.61,255.51Z"/><path class="cls-4" d="M857.28,443.66c0,10.85-.18,21.71.07,32.56.24,10.07-3.64,15.17-13,14.59l-19.38.13c-41.62.28-83.24.84-124.86.64-10.31-.05-17.46,4-23.42,12.85-12.26,18.14-24.86,36-37.35,53.94-6.27,9-13.5,11.45-19.35,6.71-3.61-2.92-4.93-6.62-4.92-11.66q.2-141.3.16-282.6c0-11.15,3.7-15.18,13.73-15.19q107.71-.09,215.43,0c9.55,0,13.18,4.32,13.17,15.77Q857.48,357.52,857.28,443.66ZM756.9,385.24a25.27,25.27,0,0,0,0-26.78l-51.64-84.53c-3.34-5.46-9.88-8.87-17-8.87h-40.6c-14.5,0-23.79,13.37-17,24.48L676.18,364a14.75,14.75,0,0,1,0,15.61l-45.52,74.5c-6.79,11.11,2.5,24.48,17,24.48h40.6c7.12,0,13.66-3.41,17-8.87Zm97.11-26-41.53-68c-2.68-4.39-7.94-7.13-13.67-7.13H766.17c-11.66,0-19.13,10.75-13.67,19.68l36.6,59.91a11.84,11.84,0,0,1,0,12.55l-36.6,59.91c-5.46,8.93,2,19.68,13.67,19.68h32.64c5.73,0,11-2.75,13.67-7.13l41.53-68A20.3,20.3,0,0,0,854,359.23Z"/><path class="cls-2" d="M735.76,637.27q0,34.28,8.28,49.37A66.79,66.79,0,0,0,756.82,703l-10.58,0c-5.53,0-9.6-1.95-10.83-6.17-2.61-8.86-5-17.77-7-26.73-4.5-20-2.44-40.3-2.53-60.48a5,5,0,0,1,2.14-3.22h0a2.34,2.34,0,0,1,1.63-2.08h0l1.28-1h0a11,11,0,0,1,6.29-2.72,9.92,9.92,0,0,0-1.37,5Z"/><path class="cls-2" d="M801.38,637.27q0,34.29,8.26,49.38a66.85,66.85,0,0,0,12.84,16.45q-17.67,0-35.35,0a10.3,10.3,0,0,0-4.71-8.07,39.38,39.38,0,0,1-12.37-13.09q-4.92-8.48-6.8-21.34c-.93-6.37,4.43-12.05,11.42-12.05h1.09c6.36,0,11.52-4.74,11.52-10.6V605.66a9.9,9.9,0,0,0-1.5-5.22l17.12,0a9.8,9.8,0,0,0-1.53,5.25Z"/><path class="cls-2" d="M863.57,660.41l.12,6.33c0,9.51.28,19,.09,28.52-.1,5-4.09,7.84-10.69,7.85h-.33A10.31,10.31,0,0,0,848,695a39.29,39.29,0,0,1-12.37-13.09q-4.92-8.46-6.81-21.33c-.93-6.37,4.43-12.06,11.42-12.06h1.09c6.36,0,11.52-4.74,11.52-10.6V605.66a9.82,9.82,0,0,0-1.59-5.35h5c2.46,0,4.83.19,6.4,2,2.16,1.06,2.34,2.69,2.29,4.49Q864.27,633.57,863.57,660.41Z"/><path class="cls-2" d="M851.15,709l0,0c-3.36,5.19-10.74,6.75-16.23,3.44a73.24,73.24,0,0,1-12.4-9.38l30.27,0A9.89,9.89,0,0,1,851.15,709Z"/><path class="cls-2" d="M812.89,595.06h28.48a11.71,11.71,0,0,1,9.93,5.25l-48.41.09A11.72,11.72,0,0,1,812.89,595.06Z"/><path class="cls-2" d="M785.54,709l0,0c-3.36,5.19-10.74,6.75-16.24,3.44A73.49,73.49,0,0,1,756.82,703l30.32,0A9.93,9.93,0,0,1,785.54,709Z"/><path class="cls-2" d="M737.13,600.64a11.7,11.7,0,0,1,10.15-5.58h28.48a11.71,11.71,0,0,1,10,5.38l-46.66.09A14.31,14.31,0,0,0,737.13,600.64Z"/><path class="cls-3" d="M703.2,574.78a26.3,26.3,0,0,0,26.19-26c0-14.27-11.86-26.22-26-26.19a26.19,26.19,0,0,0-26,25.78C677.18,562.24,689.82,574.81,703.2,574.78Z"/><path class="cls-3" d="M768.91,574.78c14.3,0,26.19-11.76,26.19-26s-11.86-26.22-26-26.19a26.19,26.19,0,0,0-26.05,25.78C742.89,562.24,755.53,574.81,768.91,574.78Z"/><path class="cls-3" d="M835.18,574.78c14.3,0,26.19-11.76,26.19-26s-11.85-26.22-26-26.19a26.2,26.2,0,0,0-26,25.78C809.17,562.24,821.8,574.81,835.18,574.78Z"/><path class="cls-4" d="M484.79,756.4c-.17,24.21-.23,48.42,0,72.62-17.47-3.37-30.75-18.24-31-35.91C453.61,775.86,467.94,760,484.79,756.4Z"/><path class="cls-4" d="M694.35,792.79c0-12.12,0-24.25,0-36.37,17.48,3.5,30.89,18.46,30.9,36.11,0,17.8-13.47,33.06-30.87,36.49C694.45,816.94,694.36,804.87,694.35,792.79Z"/><path class="cls-4" d="M492.23,829.74a38.76,38.76,0,0,1-7.43-.72c0,.45,0,.9,0,1.35.1,9.11,8.24,12.65,27.54,12.65q79,0,158.09-.09c17,0,23.78-3.14,23.88-11,0-1,0-1.93,0-2.89a37.62,37.62,0,0,1-7.47.72c-21,0-38.15-16.52-38.4-36.63-.25-19.65,18.38-37.51,38.12-37.47a40.1,40.1,0,0,1,7.72.78V755c-.07-9.36-7-12.58-26.68-12.58q-78.33,0-156.68,0c-17.86,0-26.09,3.58-26.15,11.73,0,.77,0,1.53,0,2.3a34.34,34.34,0,0,1,7.16-.76c21.09.05,38.61,16.72,38.62,36.89S513.09,829.79,492.23,829.74Zm58.5-36.63c-.24-19.65,18.39-37.51,38.12-37.47,21.09.05,38.62,16.72,38.63,36.89S610,829.79,589.14,829.74C568.13,829.7,551,813.22,550.73,793.11Z"/><path class="cls-3" d="M558.17,656c13.6,0,24.91,10.78,24.91,23.79s-11.28,24-24.72,24-24.61-10.66-24.77-23.62C533.43,667.45,545.45,655.93,558.17,656Z"/><path class="cls-3" d="M620.67,656c13.6,0,24.9,10.78,24.91,23.79s-11.28,24-24.73,24-24.6-10.66-24.76-23.62C595.93,667.45,607.94,655.93,620.67,656Z"/><path class="cls-3" d="M683.7,656c13.6,0,24.9,10.78,24.91,23.79s-11.28,24-24.73,24-24.6-10.66-24.77-23.62C659,667.45,671,655.93,683.7,656Z"/><path class="cls-3" d="M558.17,595.06c13.6,0,24.91,10.77,24.91,23.78s-11.28,24-24.72,24-24.61-10.66-24.77-23.62C533.43,606.54,545.45,595,558.17,595.06Z"/><path class="cls-3" d="M620.67,595.06c13.6,0,24.9,10.77,24.91,23.78s-11.28,24-24.73,24-24.6-10.66-24.76-23.62C595.93,606.54,607.94,595,620.67,595.06Z"/><path class="cls-3" d="M683.7,595.06c13.6,0,24.9,10.77,24.91,23.78s-11.28,24-24.73,24-24.6-10.66-24.77-23.62C659,606.54,671,595,683.7,595.06Z"/><path class="cls-2" d="M470.55,718.34c-7.81,0-14.36-5.54-15.4-12.63l30.79,0C484.89,713,478.29,718.29,470.55,718.34Z"/><path class="cls-2" d="M455.86,605.55a8,8,0,0,1,8.29-8.37h12.78a8,8,0,0,1,8.29,8.37l-3.45,48.32H459.31Z"/><path class="cls-2" d="M433.74,659.9c0-4.2,2.09-6,6.6-6h19l1.5,21.08a8.13,8.13,0,0,0,8.29,7.32H472a8.13,8.13,0,0,0,8.29-7.32l1.5-21.07h8.47c5,0,17.1,1.66,17.11,6.48,0,6.5,0,13,0,19.49,0,6.72,0,13.44,0,20.16,0,4-1.75,5.66-6,5.67h-15.4a14.9,14.9,0,0,0,.16-2c0-8.15-6.79-14.67-15.53-14.69S455,695.66,455,703.73a13,13,0,0,0,.17,2H440.69c-4.87,0-6.92-1.82-6.94-6.52C433.68,686.1,433.7,673,433.74,659.9Z"/><path class="cls-3" d="M471.27,0H452.21c-6.81,0-11.17,6.28-8,11.5l21.37,35a6.92,6.92,0,0,1,0,7.33l-21.37,35c-3.19,5.22,1.17,11.5,8,11.5h19.06a9.3,9.3,0,0,0,8-4.17l24.25-39.69a11.85,11.85,0,0,0,0-12.58L479.26,4.17A9.3,9.3,0,0,0,471.27,0Z"/><path class="cls-2" d="M525.83,10.13H510.62c-5.44,0-8.92,5-6.37,9.17l17.06,27.92a5.55,5.55,0,0,1,0,5.85L504.25,81c-2.55,4.16.93,9.17,6.37,9.17h15.21a7.43,7.43,0,0,0,6.37-3.32l19.36-31.68a9.47,9.47,0,0,0,0-10L532.2,13.45A7.43,7.43,0,0,0,525.83,10.13Z"/><path class="cls-3" d="M573.66,0H554.6c-6.81,0-11.17,6.28-8,11.5l21.38,35a6.92,6.92,0,0,1,0,7.33l-21.38,35c-3.18,5.22,1.18,11.5,8,11.5h19.06a9.3,9.3,0,0,0,8-4.17L605.9,56.44a11.89,11.89,0,0,0,0-12.58L581.65,4.17A9.3,9.3,0,0,0,573.66,0Z"/><path class="cls-4" d="M469.18,133.64H452.69c-5.89,0-9.66,5.43-6.9,10l18.49,30.26a6,6,0,0,1,0,6.34l-18.49,30.26c-2.76,4.52,1,10,6.9,10h16.49a8,8,0,0,0,6.91-3.61l21-34.33a10.27,10.27,0,0,0,0-10.88l-21-34.33A8,8,0,0,0,469.18,133.64Z"/><path class="cls-2" d="M562.41,224.38c29.37-.06,52.21-22.79,52.17-51.24,0-29.23-23.87-51-52.23-51.22-28.69,0-52.35,23-52.33,51C510.05,201,532.57,224.43,562.41,224.38Z"/></pattern></defs><title>Artboard 140</title><g class="cls-5"><g class="cls-6"><rect class="cls-7" x="-911.08" y="-410.69" width="1523.14" height="1775.46"/></g></g><g class="cls-8"><g class="cls-9"><rect class="cls-10" x="-1149.49" y="-410.69" width="1523.14" height="1775.46"/></g></g><g class="cls-11"><rect class="cls-12" x="-247.84" width="1203.51" height="1402.89"/></g></svg>